<svg width="2033" height="3961" viewBox="0 0 2033 3961" fill="none" xmlns="http://www.w3.org/2000/svg">
<path d="M2073.47 2981.18C1919.97 2908.18 1903.97 3057.18 1680.97 3076.18C1505.4 3091.14 1426.27 2876.92 1138.47 3014.18C1008.47 3076.18 934.907 3098.38 822.472 3129.68C-1423.53 3754.87 -85.0283 -4353.63 -87.0283 3327.87C-88.6284 9473.07 1526.64 5731.78 2388.97 3171.28L2073.47 2981.18Z" fill="#5E5E5E"/>
<path d="M1995.52 3172.68C1842.02 3099.68 1826.02 3248.68 1603.02 3267.68C1427.45 3282.64 1371.03 3133.19 1060.52 3205.68C927.832 3236.66 872.398 3288.89 760.832 3323.16C-1160.86 3913.44 -124.977 -4156.13 -126.977 3525.37C-128.577 9670.57 1448.69 5923.28 2311.02 3362.78L1995.52 3172.68Z" fill="#4D4D4D"/>
<path d="M2194.03 3346.62C2040.53 3273.62 2024.53 3422.62 1801.53 3441.62C1625.96 3456.58 1485.51 3234.47 1187.03 3346.62C1022.03 3408.62 966.378 3453.01 857.529 3495.12C-1373.47 4358.22 -68.4707 -4186.38 -70.4707 3495.12C-72.0708 9640.32 1647.2 6097.23 2509.53 3536.73L2194.03 3346.62Z" fill="#404040"/>
</svg>
