<svg width="42" height="40" viewBox="0 0 42 40" fill="none" xmlns="http://www.w3.org/2000/svg">
<path d="M31.377 4.96094C30.0029 4.96094 28.6289 5.46875 27.5625 6.48438L6.80859 26.25L6.72656 26.6406L5.29102 33.5156L4.88086 35.3516L6.80859 34.9609L14.0273 33.5938L14.4375 33.5156L35.1914 13.75C37.3242 11.7188 37.3242 8.51562 35.1914 6.48438C34.125 5.46875 32.751 4.96094 31.377 4.96094ZM31.377 7.34375C32.0383 7.34375 32.7048 7.63184 33.3457 8.24219C34.6223 9.45801 34.6223 10.7764 33.3457 11.9922L32.4023 12.8516L28.5059 9.14062L29.4082 8.24219C30.0491 7.63184 30.7156 7.34375 31.377 7.34375ZM26.6602 10.8984L30.5566 14.6094L14.6836 29.7266C13.8223 28.125 12.4688 26.8359 10.7871 26.0156L26.6602 10.8984ZM9.10547 28.0469C10.6794 28.6523 11.915 29.8291 12.5508 31.3281L8.24414 32.1484L9.10547 28.0469Z" fill="black"/>
</svg>
