<svg width="2064" height="1080" viewBox="0 0 2064 1080" fill="none" xmlns="http://www.w3.org/2000/svg">
<g clip-path="url(#clip0_690_427)" filter="url(#filter0_d_690_427)">
<rect width="2064" height="1080" transform="matrix(-1 0 0 -1 2064 1080)" fill="white"/>
<path d="M2074.47 110.176C1920.97 37.1763 1904.97 186.176 1681.97 205.176C1506.4 220.135 1427.27 5.9187 1139.47 143.176C1009.47 205.176 935.907 227.379 823.471 258.676C-1422.53 883.865 -84.0286 -7224.63 -86.0286 456.865C-87.6287 6602.07 1527.64 2860.78 2389.97 300.283L2074.47 110.176Z" fill="#5E5E5E"/>
<path d="M1996.52 301.677C1843.02 228.677 1827.02 377.677 1604.02 396.677C1428.45 411.636 1372.03 262.186 1061.52 334.677C928.832 365.656 873.398 417.886 761.832 452.156C-1159.86 1042.44 -123.977 -7027.13 -125.977 654.368C-127.577 6799.57 1449.69 3052.28 2312.02 491.784L1996.52 301.677Z" fill="#4D4D4D"/>
<path d="M2195.03 475.621C2041.53 402.621 2025.53 551.621 1802.53 570.621C1626.96 585.58 1486.51 363.466 1188.03 475.621C1023.03 537.621 967.378 582.011 858.529 624.121C-1372.47 1487.22 -67.4707 -7057.38 -69.4707 624.121C-71.0708 6769.32 1648.2 3226.23 2510.53 665.728L2195.03 475.621Z" fill="#404040"/>
</g>
<defs>
<filter id="filter0_d_690_427" x="-4" y="0" width="2072" height="1088" filterUnits="userSpaceOnUse" color-interpolation-filters="sRGB">
<feFlood flood-opacity="0" result="BackgroundImageFix"/>
<feColorMatrix in="SourceAlpha" type="matrix" values="0 0 0 0 0 0 0 0 0 0 0 0 0 0 0 0 0 0 127 0" result="hardAlpha"/>
<feOffset dy="4"/>
<feGaussianBlur stdDeviation="2"/>
<feComposite in2="hardAlpha" operator="out"/>
<feColorMatrix type="matrix" values="0 0 0 0 0 0 0 0 0 0 0 0 0 0 0 0 0 0 0.25 0"/>
<feBlend mode="normal" in2="BackgroundImageFix" result="effect1_dropShadow_690_427"/>
<feBlend mode="normal" in="SourceGraphic" in2="effect1_dropShadow_690_427" result="shape"/>
</filter>
<clipPath id="clip0_690_427">
<rect width="2064" height="1080" fill="white" transform="matrix(-1 0 0 -1 2064 1080)"/>
</clipPath>
</defs>
</svg>
