<svg width="2064" height="2978" viewBox="0 0 2064 2978" fill="none" xmlns="http://www.w3.org/2000/svg">
<path d="M84.5 1242.81C156.5 1165 288.077 1080.15 493 1153.5C549.344 1173.67 679.445 1217.3 739.544 1237.31C840.612 1270.97 915.291 1304.23 1114.42 1242.81C1257.85 1198.57 1432.62 1093.38 1556.8 1060.47C2206.56 888.273 2155.59 3840.77 2157.8 -1640.4C2159.56 -6025.34 855.442 -642.237 -96 1184.82L-35 1390L84.5 1242.81Z" fill="#681413"/>
<path d="M-63.2393 1097.5C99.6274 1149.59 204.761 943.979 448.761 929.996C668.761 917.388 770.401 1174.77 1075.76 1076.81C1213.69 1032.56 1393.81 939.271 1479.26 890.812C2560.76 277.496 2284.38 6083.45 2286.5 601.367C2288.2 -3784.3 499.954 -1214.44 -415 612.921L-63.2393 1097.5Z" fill="#9A1915"/>
<path d="M224.5 685.36C363 649.86 546 857.478 808 857.478C1037.23 857.478 1157.87 734.316 1533.21 635.865C1668 600.51 1669.3 594.258 1812.5 614.862C2794.66 756.176 2994.39 5898.38 2997 388.623C2999.09 -4019.18 538.636 -1069.23 -586 767.36L-14.5 779L24.5 740.86L54.5 720.86L96 708.86L202.5 685.36H224.5Z" fill="#E30613"/>
</svg>
