<svg width="44" height="41" viewBox="0 0 44 41" fill="none" xmlns="http://www.w3.org/2000/svg">
<path fill-rule="evenodd" clip-rule="evenodd" d="M22 30.75C28.0751 30.75 33 26.1609 33 20.5C33 14.8391 28.0751 10.25 22 10.25C15.9249 10.25 11 14.8391 11 20.5C11 26.1609 15.9249 30.75 22 30.75ZM22 27.3333C26.05 27.3333 29.3333 24.2739 29.3333 20.5C29.3333 16.7261 26.05 13.6667 22 13.6667C17.9499 13.6667 14.6667 16.7261 14.6667 20.5C14.6667 24.2739 17.9499 27.3333 22 27.3333Z" fill="white"/>
<path d="M33.0001 8.5415C31.9875 8.5415 31.1667 9.30636 31.1667 10.2498C31.1667 11.1933 31.9875 11.9582 33.0001 11.9582C34.0126 11.9582 34.8334 11.1933 34.8334 10.2498C34.8334 9.30636 34.0126 8.5415 33.0001 8.5415Z" fill="white"/>
<path fill-rule="evenodd" clip-rule="evenodd" d="M3.03218 7.3051C1.83325 9.49769 1.83325 12.368 1.83325 18.1085V22.8918C1.83325 28.6323 1.83325 31.5027 3.03218 33.6952C4.08679 35.6239 5.76957 37.1919 7.83936 38.1746C10.1924 39.2918 13.2727 39.2918 19.4333 39.2918H24.5666C30.7271 39.2918 33.8075 39.2918 36.1604 38.1746C38.2302 37.1919 39.9131 35.6239 40.9676 33.6952C42.1666 31.5027 42.1666 28.6323 42.1666 22.8918V18.1085C42.1666 12.368 42.1666 9.49769 40.9676 7.3051C39.9131 5.37642 38.2302 3.80838 36.1604 2.82568C33.8075 1.7085 30.7271 1.7085 24.5666 1.7085H19.4333C13.2727 1.7085 10.1924 1.7085 7.83936 2.82568C5.76957 3.80838 4.08679 5.37642 3.03218 7.3051ZM24.5666 5.12516H19.4333C16.2925 5.12516 14.1574 5.12783 12.5071 5.25346C10.8995 5.37584 10.0775 5.59767 9.50399 5.86994C8.12413 6.52509 7.00228 7.57045 6.2992 8.85623C6.007 9.3906 5.76894 10.1566 5.6376 11.6545C5.50278 13.1923 5.49992 15.1818 5.49992 18.1085V22.8918C5.49992 25.8185 5.50278 27.8079 5.6376 29.3457C5.76894 30.8438 6.007 31.6098 6.2992 32.1442C7.00228 33.4299 8.12413 34.4752 9.50399 35.1303C10.0775 35.4026 10.8995 35.6245 12.5071 35.7469C14.1574 35.8724 16.2925 35.8752 19.4333 35.8752H24.5666C27.7075 35.8752 29.8424 35.8724 31.4927 35.7469C33.1004 35.6245 33.9225 35.4026 34.4959 35.1303C35.8757 34.4752 36.9975 33.4299 37.7006 32.1442C37.9928 31.6098 38.231 30.8438 38.3622 29.3457C38.497 27.8079 38.4999 25.8185 38.4999 22.8918V18.1085C38.4999 15.1818 38.497 13.1923 38.3622 11.6545C38.231 10.1566 37.9928 9.3906 37.7006 8.85623C36.9975 7.57045 35.8757 6.52509 34.4959 5.86994C33.9225 5.59767 33.1004 5.37584 31.4927 5.25346C29.8424 5.12783 27.7075 5.12516 24.5666 5.12516Z" fill="white"/>
</svg>
