<svg width="44" height="42" viewBox="0 0 44 42" fill="none" xmlns="http://www.w3.org/2000/svg">
<path d="M11.9167 14C13.4355 14 14.6667 12.8248 14.6667 11.375C14.6667 9.92525 13.4355 8.75 11.9167 8.75C10.398 8.75 9.16675 9.92525 9.16675 11.375C9.16675 12.8248 10.398 14 11.9167 14Z" fill="#FFFBFB"/>
<path d="M9.16675 17.5C9.16675 16.5335 9.98757 15.75 11.0001 15.75H12.8334C13.8459 15.75 14.6667 16.5335 14.6667 17.5V31.5C14.6667 32.4665 13.8459 33.25 12.8334 33.25H11.0001C9.98757 33.25 9.16675 32.4665 9.16675 31.5V17.5Z" fill="#FFFBFB"/>
<path d="M20.1666 33.25H21.9999C23.0125 33.25 23.8333 32.4665 23.8333 31.5V23.625C23.8333 21 29.3333 19.25 29.3333 22.75V31.5007C29.3333 32.4672 30.154 33.25 31.1666 33.25H32.9999C34.0125 33.25 34.8333 32.4665 34.8333 31.5V21C34.8333 17.5 32.0833 15.75 28.4166 15.75C24.7499 15.75 23.8333 18.375 23.8333 18.375V17.5C23.8333 16.5335 23.0125 15.75 21.9999 15.75H20.1666C19.154 15.75 18.3333 16.5335 18.3333 17.5V31.5C18.3333 32.4665 19.154 33.25 20.1666 33.25Z" fill="#FFFBFB"/>
<path fill-rule="evenodd" clip-rule="evenodd" d="M36.6666 1.75C39.7042 1.75 42.1666 4.10051 42.1666 7V35C42.1666 37.8996 39.7042 40.25 36.6666 40.25H7.33325C4.29569 40.25 1.83325 37.8996 1.83325 35V7C1.83325 4.10051 4.29569 1.75 7.33325 1.75H36.6666ZM36.6666 5.25C37.6791 5.25 38.4999 6.03351 38.4999 7V35C38.4999 35.9665 37.6791 36.75 36.6666 36.75H7.33325C6.32074 36.75 5.49992 35.9665 5.49992 35V7C5.49992 6.03351 6.32074 5.25 7.33325 5.25H36.6666Z" fill="#FFFBFB"/>
</svg>
