<svg width="24" height="28" viewBox="0 0 24 28" fill="none" xmlns="http://www.w3.org/2000/svg">
<path d="M9.34003 0.800003C4.27542 0.800003 0.160034 5.37266 0.160034 11C0.160034 16.6273 4.27542 21.2 9.34003 21.2C11.3439 21.2 13.196 20.4828 14.7063 19.2688L21.8107 27.1438L23.3294 25.4563L16.3094 17.6375C17.6889 15.8516 18.52 13.5336 18.52 11C18.52 5.37266 14.4046 0.800003 9.34003 0.800003ZM9.34003 2C13.8203 2 17.44 6.02188 17.44 11C17.44 15.9781 13.8203 20 9.34003 20C4.85972 20 1.24003 15.9781 1.24003 11C1.24003 6.02188 4.85972 2 9.34003 2Z" fill="#3D2222"/>
</svg>
