<svg width="2033" height="1433" viewBox="0 0 2033 1433" fill="none" xmlns="http://www.w3.org/2000/svg">
<path d="M0 1188.48C62.9967 1148.14 196.392 1081.78 196.392 1081.78C196.392 1081.78 278.304 1036.83 389.823 1043.75C479.038 1049.28 607.926 1107.96 659.245 1138.59C730.794 1181.29 942.68 1263.86 1219.8 1114.88C1566.2 928.656 1695.01 975.8 1750.75 987.931C1807.49 1000.28 1927.08 1139.08 1973.79 1265.04C2007.34 1355.54 2027.24 1414.05 2033 1432V1H0V1188.48Z" fill="#681413" stroke="#E30613"/>
<path d="M0 1060.99C66.6153 1002.86 176.654 950.29 242.776 921.478C300.368 896.383 368.111 874.974 447.556 874.974C527.001 874.974 668.071 949.279 705.573 964.444C743.075 979.608 862.489 1030.16 932.558 1030.16C962.659 1030.16 1103.84 1030.66 1243.98 964.444C1348.8 914.913 1491.49 852.396 1548.72 828.47C1596.5 812.463 1688.09 790.999 1718.46 798.647C1738.42 798.647 1796.83 807.24 1838.31 841.612C1879.79 875.985 1926.36 937.822 1944.46 964.444L2033 1108L2026.64 1H0V1060.99Z" fill="#9A1915" stroke="#E30613"/>
<path d="M0 668.876C54.4791 649.396 177.564 608.469 225.012 608.469C279.784 608.469 384.418 632.536 448.566 668.876C493.061 694.083 561.603 740.083 649.384 762.182C737.165 784.281 853.074 764.147 899.147 749.905C936.005 738.512 1093.3 666.912 1167.34 632.536L1344.84 569.677C1408.86 548.233 1542.09 513.202 1566.96 513.202C1602.24 513.202 1788.59 498.961 1922.45 632.536C2029.53 739.396 2039.17 748.432 2030.6 739.592V1H0V668.876Z" fill="#E30613" stroke="#E30613"/>
</svg>
