<svg width="243" height="243" viewBox="0 0 243 243" fill="none" xmlns="http://www.w3.org/2000/svg">
<path d="M90.4435 139.563C109.795 139.563 125.482 123.874 125.482 104.524C125.482 85.1732 109.797 69.4857 90.4435 69.4857C71.0903 69.4857 55.4048 85.1732 55.4048 104.524C55.4048 123.874 71.0923 139.563 90.4435 139.563ZM88.7507 106.952C82.0404 104.522 77.6948 101.454 77.6948 95.512C77.6948 90.0164 81.529 85.7982 87.9827 84.6481V78.3845H93.2256V84.3288C97.2498 84.4561 99.9986 85.4142 102.042 86.4369L100.318 92.3165C98.7858 91.6131 95.9724 90.1437 91.6249 90.1437C87.152 90.1437 85.5552 92.4438 85.5552 94.6166C85.5552 97.2361 87.8534 98.7075 93.2863 100.88C100.445 103.564 103.643 107.015 103.643 112.702C103.643 118.133 99.8732 122.927 92.8415 124.077V130.658H87.6006V124.456C83.5744 124.334 79.5482 123.182 77.2462 121.65L78.9742 115.641C81.4644 117.11 85.0439 118.452 88.9427 118.452C92.9709 118.452 95.7177 116.472 95.7177 113.406C95.7157 110.529 93.4783 108.678 88.7507 106.952Z" fill="black"/>
<path d="M142.706 76.5839C162.119 76.5839 177.856 60.8455 177.856 41.4316C177.856 22.0177 162.119 6.2793 142.706 6.2793C123.292 6.2793 107.555 22.0177 107.555 41.4316C107.555 60.8455 123.292 76.5839 142.706 76.5839ZM124.244 42.9049H127.835C127.835 42.5836 127.835 42.1996 127.835 41.8783C127.835 41.1083 127.9 40.2776 127.964 39.5723H124.244V35.5971H128.538C129.31 31.6845 131.04 28.3519 133.348 25.9166C136.81 22.0706 141.491 19.89 147.196 19.89C151.042 19.89 154.249 20.852 156.365 21.8786L154.763 27.8405C153.097 26.9451 150.47 26.1086 147.582 26.1086C144.373 26.1086 141.552 27.2625 139.441 29.6352C138.092 31.0458 137.13 33.1617 136.618 35.5971H153.417V39.5723H135.848C135.723 40.2776 135.723 41.0456 135.723 41.8156C135.723 42.1996 135.723 42.5209 135.723 42.9069H153.42V46.8155H136.426C136.877 49.5741 137.839 51.6254 139.189 53.1007C141.363 55.4714 144.443 56.5607 147.78 56.5607C150.921 56.5607 153.865 55.4714 155.342 54.6407L156.69 60.4086C154.574 61.6919 150.981 62.9752 146.879 62.9752C141.044 62.9752 135.789 60.6653 132.39 56.3707C130.339 53.998 128.926 50.7908 128.35 46.8155H124.242L124.244 42.9049Z" fill="black"/>
<path d="M212.736 92.8023C229.45 92.8023 243 79.2523 243 62.5382C243 45.8241 229.45 32.2742 212.736 32.2742C196.022 32.2742 182.472 45.8241 182.472 62.5382C182.472 79.2523 196.022 92.8023 212.736 92.8023ZM205.726 44.5977L210.363 54.5897C211.357 56.6312 211.962 58.3435 212.683 60.1088H212.795C213.459 58.4533 214.172 56.5215 215.114 54.478L219.918 44.5977H227.093L217.432 60.771H224.278V64.1389H215.61V67.8928H224.278V71.2607H215.61V80.4788H209.262V71.2607H200.652V67.8928H209.262V64.1389H200.652V60.771H207.55L198.389 44.5977H205.726Z" fill="black"/>
<path d="M146.36 118.731C146.36 135.997 160.358 149.996 177.623 149.996C194.891 149.996 208.888 135.997 208.888 118.731C208.888 101.462 194.891 87.4655 177.623 87.4655C160.354 87.4655 146.36 101.462 146.36 118.731ZM188.514 101.307L187.26 106.611C186.175 105.982 184.523 105.469 182.3 105.469C178.079 105.469 176.537 108.319 176.537 111.629C176.537 113.566 176.824 115.108 177.168 116.76H185.15V121.607H177.793C177.852 123.374 177.852 125.084 177.394 126.681C176.824 128.621 175.683 130.274 174.086 131.701V131.814H190.111V137.574H165.133V133.752C168.558 132.159 171.579 128.732 171.579 124.687C171.579 123.603 171.524 122.688 171.351 121.609H165.65V116.762H170.552C170.266 115.165 169.982 113.284 169.982 111.458C169.982 104.444 174.945 99.883 182.015 99.883C185.093 99.883 187.258 100.567 188.514 101.307Z" fill="black"/>
<path d="M227.685 159.851C223.657 156.644 215.859 152.897 207.115 152.897C199.719 152.897 189 155.58 179.895 168.334C171.706 178.789 161.442 183.02 153.105 184.623C153.854 182.756 154.339 180.513 154.353 177.341C154.428 159.608 140.294 146.277 120.751 146.189L50.9867 146.25C44.439 146.25 37.9951 148.182 32.5622 151.679V142.602H0V236.721H32.5603V226.721C33.7907 227.33 35.4854 228.559 35.4854 228.559C41.0907 231.65 49.7779 235.445 58.6394 235.445H122.731C177.94 235.445 216.057 204.515 229.881 189.194C234.011 184.613 238.29 179.876 237.798 173.91C237.363 168.579 233.441 164.435 227.685 159.851ZM21.6552 163.395H10.2741V152.014H21.6552V163.395ZM221.433 181.571C208.629 195.763 173.377 224.066 122.733 224.066H58.6414C47.8049 224.066 36.1358 215.591 36.03 215.508C35.0308 214.772 33.8416 214.395 32.6425 214.395C32.6171 214.395 32.5896 214.403 32.5603 214.403V164.251C33.8063 164.275 35.0485 163.916 36.0771 163.134L37.3212 162.196C41.1926 159.255 46.0436 157.635 50.9593 157.635L120.698 157.572C131.826 157.621 143.031 164.01 142.974 177.298C142.974 184.97 137.858 185.364 137.582 185.432H86.4603C83.3178 185.432 80.7708 187.981 80.7708 191.122C80.7708 194.262 83.3178 196.808 86.4603 196.808H140.717L143.74 196.8C152.257 196.798 173.706 194.788 188.945 175.233C188.994 175.166 189.049 175.097 189.094 175.029C194.161 167.895 200.222 164.279 207.111 164.279C213.332 164.279 218.651 167.206 220.59 168.752C226.292 173.291 226.45 174.78 226.454 174.841C226.478 175.987 222.816 180.044 221.433 181.571Z" fill="black"/>
</svg>
