<svg width="267" height="257" viewBox="0 0 267 257" fill="none" xmlns="http://www.w3.org/2000/svg">
<path d="M238.375 224.971C240.222 224.971 241.968 224.171 243.131 222.79C244.293 221.409 244.747 219.598 244.365 217.86L240.51 200.3C242.706 198.255 244.086 195.401 244.086 192.227C244.086 188.886 242.54 185.923 240.14 183.864V122.881L224.686 132.087V183.864C222.287 185.923 220.74 188.886 220.74 192.227C220.74 195.401 222.121 198.256 224.316 200.3L220.461 217.86C220.079 219.599 220.533 221.41 221.695 222.79C222.858 224.17 224.604 224.971 226.45 224.971H238.375ZM243.614 87.2954L143.076 27.3906C140.132 25.6448 136.812 24.7684 133.493 24.7684C130.174 24.7684 126.852 25.6441 123.926 27.3906L23.3866 87.2954C20.702 88.8943 19.0715 91.7184 19.0715 94.7578C19.0715 97.7977 20.702 100.623 23.3866 102.224L123.925 162.13C126.852 163.877 130.173 164.752 133.493 164.752C136.812 164.752 140.132 163.876 143.075 162.13L243.614 102.224C246.298 100.623 247.929 97.7977 247.929 94.7578C247.929 91.7184 246.298 88.8934 243.614 87.2954ZM133.493 179.626C127.23 179.626 121.118 177.952 115.79 174.778L57.145 139.832V200.006C57.145 217.815 91.3431 232.232 133.493 232.232C175.657 232.232 209.852 217.815 209.852 200.006V139.832L151.21 174.778C145.882 177.952 139.755 179.626 133.493 179.626Z" fill="black"/>
</svg>
