<svg width="43" height="36" viewBox="0 0 43 36" fill="none" xmlns="http://www.w3.org/2000/svg">
<path fill-rule="evenodd" clip-rule="evenodd" d="M5.00004 17.9102C5.00004 9.92112 12.6112 3.44467 22 3.44467C31.3888 3.44467 39 9.92112 39 17.9102C39 25.8993 31.3888 32.3758 22 32.3758C18.6556 32.3758 15.5425 31.5558 12.916 30.1397C12.4271 29.8763 11.8282 29.8058 11.2737 29.9466L5.51538 31.409L7.68346 27.0921C7.93972 26.5819 7.88758 25.9975 7.54374 25.5261C5.9314 23.3152 5.00004 20.7079 5.00004 17.9102ZM22 0.0410156C10.4021 0.0410156 1.00004 8.04133 1.00004 17.9102C1.00004 21.0384 1.94632 23.9829 3.6093 26.5431L0.160943 33.4088C-0.143901 34.0158 -0.00877708 34.718 0.507643 35.2105C1.02406 35.7032 1.82864 35.8972 2.57198 35.7083L11.5708 33.4233C14.6449 34.9226 18.2074 35.7794 22 35.7794C33.598 35.7794 43 27.7791 43 17.9102C43 8.04133 33.598 0.0410156 22 0.0410156ZM26.585 21.6243L23.9566 23.1997C22.7256 22.603 21.3646 21.7701 19.9994 20.6085C18.5802 19.4009 17.528 18.1541 16.7522 17.0105L18.4226 15.804C19.1394 15.2863 19.3356 14.4135 18.894 13.7072L16.7657 10.3035C16.4791 9.84521 15.9623 9.52327 15.3623 9.42923C14.7623 9.3352 14.1446 9.47936 13.6849 9.82073L13.0539 10.2893C11.5365 11.4163 10.639 13.2681 11.3828 15.1432C12.154 17.0871 13.7997 20.1464 17.171 23.0152C20.7982 26.1016 24.4826 27.3171 26.6372 27.7892C28.3732 28.1694 30.016 27.6597 31.1736 26.8571L32.3566 26.0368C32.8626 25.6861 33.1356 25.1471 33.088 24.5931C33.0402 24.0392 32.6778 23.5399 32.117 23.2555L28.7604 21.5537C28.0824 21.2101 27.2304 21.2376 26.585 21.6243Z" fill="white"/>
</svg>
